<svg width="375" height="360" viewBox="0 0 375 360" fill="none" xmlns="http://www.w3.org/2000/svg">
<path fill-rule="evenodd" clip-rule="evenodd" d="M350 16.6452C350 15.9351 350.376 15.2783 350.989 14.9194L375.989 0.277236C377.323 -0.503658 379 0.457882 379 2.00303V139.595C379 140.305 378.624 140.962 378.011 141.321L353.011 155.963C351.677 156.744 350 155.783 350 154.238V16.6452ZM-6 219.438C-6 218.725 -5.62039 218.066 -5.00364 217.708L21.9964 202.044C23.3297 201.27 25 202.232 25 203.774V341.377C25 342.09 24.6204 342.749 24.0036 343.107L-2.99636 358.771C-4.32969 359.545 -6 358.583 -6 357.041V219.438ZM50 187.576C50 186.856 50.3871 186.192 51.0135 185.837L322.014 32.1771C323.347 31.4211 325 32.3842 325 33.9169V171.071C325 171.791 324.613 172.455 323.986 172.811L52.9865 326.47C51.6532 327.226 50 326.263 50 324.73V187.576ZM165.659 65.8767C165.659 64.3453 164.009 63.3821 162.675 64.1354L-4.9839 158.872C-5.61176 159.227 -6 159.893 -6 160.614V185.896C-6 187.428 -4.34934 188.391 -3.01609 187.638L164.643 92.9004C165.271 92.5457 165.659 91.8804 165.659 91.1592V65.8767ZM381 172.751C381 171.22 379.349 170.256 378.016 171.01L210.357 265.747C209.729 266.101 209.341 266.767 209.341 267.488V292.771C209.341 294.302 210.991 295.265 212.325 294.512L379.984 199.775C380.612 199.42 381 198.755 381 198.033V172.751Z" fill="#E51C44"/>
<defs>
<linearGradient id="paint0_linear" x1="187.5" y1="1" x2="187.5" y2="359.047" gradientUnits="userSpaceOnUse">
<stop stop-color="#E61C44"/>
<stop offset="1" stop-color="#E61C44" stop-opacity="0"/>
</linearGradient>
</defs>
</svg>
